TITLE ""
FILE "Disc4Track46.mp3" MP3
  TRACK 01 AUDIO
    TITLE "Disc4Track46_01"
    INDEX 01 00:00:00
  TRACK 02 AUDIO
    TITLE "Disc4Track46_02"
    INDEX 01 00:01:14
  TRACK 03 AUDIO
    TITLE "Disc4Track46_03"
    INDEX 01 00:01:72
  TRACK 04 AUDIO
    TITLE "Disc4Track46_04"
    INDEX 01 00:03:16
  TRACK 05 AUDIO
    TITLE "Disc4Track46_05"
    INDEX 01 00:04:71
  TRACK 06 AUDIO
    TITLE "Disc4Track46_06"
    INDEX 01 00:05:31
  TRACK 07 AUDIO
    TITLE "Disc4Track46_07"
    INDEX 01 00:06:44
  TRACK 08 AUDIO
    TITLE "Disc4Track46_08"
    INDEX 01 00:07:46
  TRACK 09 AUDIO
    TITLE "Disc4Track46_09"
    INDEX 01 00:08:55
  TRACK 10 AUDIO
    TITLE "Disc4Track46_10"
    INDEX 01 00:10:30
  TRACK 11 AUDIO
    TITLE "Disc4Track46_11"
    INDEX 01 00:10:71
  TRACK 12 AUDIO
    TITLE "Disc4Track46_12"
    INDEX 01 00:12:29
  TRACK 13 AUDIO
    TITLE "Disc4Track46_13"
    INDEX 01 00:13:48
  TRACK 14 AUDIO
    TITLE "Disc4Track46_14"
    INDEX 01 00:15:06
  TRACK 15 AUDIO
    TITLE "Disc4Track46_15"
    INDEX 01 00:17:32
  TRACK 16 AUDIO
    TITLE "Disc4Track46_16"
    INDEX 01 00:17:66
  TRACK 17 AUDIO
    TITLE "Disc4Track46_17"
    INDEX 01 00:19:19
  TRACK 18 AUDIO
    TITLE "Disc4Track46_18"
    INDEX 01 00:20:42
  TRACK 19 AUDIO
    TITLE "Disc4Track46_19"
    INDEX 01 00:21:69
  TRACK 20 AUDIO
    TITLE "Disc4Track46_20"
    INDEX 01 00:27:29
  TRACK 21 AUDIO
    TITLE "Disc4Track46_21"
    INDEX 01 00:27:60
  TRACK 22 AUDIO
    TITLE "Disc4Track46_22"
    INDEX 01 00:29:12
  TRACK 23 AUDIO
    TITLE "Disc4Track46_23"
    INDEX 01 00:30:13
  TRACK 24 AUDIO
    TITLE "Disc4Track46_24"
    INDEX 01 00:31:38
  TRACK 25 AUDIO
    TITLE "Disc4Track46_25"
    INDEX 01 00:33:47
  TRACK 26 AUDIO
    TITLE "Disc4Track46_26"
    INDEX 01 00:34:03
  TRACK 27 AUDIO
    TITLE "Disc4Track46_27"
    INDEX 01 00:35:20
  TRACK 28 AUDIO
    TITLE "Disc4Track46_28"
    INDEX 01 00:37:23
  TRACK 29 AUDIO
    TITLE "Disc4Track46_29"
    INDEX 01 00:38:42
  TRACK 30 AUDIO
    TITLE "Disc4Track46_30"
    INDEX 01 00:39:04
  TRACK 31 AUDIO
    TITLE "Disc4Track46_31"
    INDEX 01 00:40:27
  TRACK 32 AUDIO
    TITLE "Disc4Track46_32"
    INDEX 01 00:41:74
  TRACK 33 AUDIO
    TITLE "Disc4Track46_33"
    INDEX 01 00:43:22
  TRACK 34 AUDIO
    TITLE "Disc4Track46_34"
    INDEX 01 00:49:66
  TRACK 35 AUDIO
    TITLE "Disc4Track46_35"
    INDEX 01 00:50:22
  TRACK 36 AUDIO
    TITLE "Disc4Track46_36"
    INDEX 01 00:51:53
  TRACK 37 AUDIO
    TITLE "Disc4Track46_37"
    INDEX 01 00:52:60
  TRACK 38 AUDIO
    TITLE "Disc4Track46_38"
    INDEX 01 00:54:14
  TRACK 39 AUDIO
    TITLE "Disc4Track46_39"
    INDEX 01 01:00:26
  TRACK 40 AUDIO
    TITLE "Disc4Track46_40"
    INDEX 01 01:00:60
  TRACK 41 AUDIO
    TITLE "Disc4Track46_41"
    INDEX 01 01:02:15
  TRACK 42 AUDIO
    TITLE "Disc4Track46_42"
    INDEX 01 01:03:36
  TRACK 43 AUDIO
    TITLE "Disc4Track46_43"
    INDEX 01 01:04:67
  TRACK 44 AUDIO
    TITLE "Disc4Track46_44"
    INDEX 01 01:08:71
  TRACK 45 AUDIO
    TITLE "Disc4Track46_45"
    INDEX 01 01:09:27
  TRACK 46 AUDIO
    TITLE "Disc4Track46_46"
    INDEX 01 01:10:42
  TRACK 47 AUDIO
    TITLE "Disc4Track46_47"
    INDEX 01 01:12:45
  TRACK 48 AUDIO
    TITLE "Disc4Track46_48"
    INDEX 01 01:13:56
  TRACK 49 AUDIO
    TITLE "Disc4Track46_49"
    INDEX 01 01:15:39
  TRACK 50 AUDIO
    TITLE "Disc4Track46_50"
    INDEX 01 01:15:71
  TRACK 51 AUDIO
    TITLE "Disc4Track46_51"
    INDEX 01 01:17:33
  TRACK 52 AUDIO
    TITLE "Disc4Track46_52"
    INDEX 01 01:18:40
  TRACK 53 AUDIO
    TITLE "Disc4Track46_53"
    INDEX 01 01:20:00
  TRACK 54 AUDIO
    TITLE "Disc4Track46_54"
    INDEX 01 01:24:15
  TRACK 55 AUDIO
    TITLE "Disc4Track46_55"
    INDEX 01 01:24:46
  TRACK 56 AUDIO
    TITLE "Disc4Track46_56"
    INDEX 01 01:26:00
  TRACK 57 AUDIO
    TITLE "Disc4Track46_57"
    INDEX 01 01:28:73
  TRACK 58 AUDIO
    TITLE "Disc4Track46_58"
    INDEX 01 01:30:23
  TRACK 59 AUDIO
    TITLE "Disc4Track46_59"
    INDEX 01 01:32:14
  TRACK 60 AUDIO
    TITLE "Disc4Track46_60"
    INDEX 01 01:32:42
  TRACK 61 AUDIO
    TITLE "Disc4Track46_61"
    INDEX 01 01:33:65
  TRACK 62 AUDIO
    TITLE "Disc4Track46_62"
    INDEX 01 01:35:17
  TRACK 63 AUDIO
    TITLE "Disc4Track46_63"
    INDEX 01 01:36:38
  TRACK 64 AUDIO
    TITLE "Disc4Track46_64"
    INDEX 01 01:39:60
  TRACK 65 AUDIO
    TITLE "Disc4Track46_65"
    INDEX 01 01:40:16
  TRACK 66 AUDIO
    TITLE "Disc4Track46_66"
    INDEX 01 01:41:49
  TRACK 67 AUDIO
    TITLE "Disc4Track46_67"
    INDEX 01 01:42:56
  TRACK 68 AUDIO
    TITLE "Disc4Track46_68"
    INDEX 01 01:44:16
  TRACK 69 AUDIO
    TITLE "Disc4Track46_69"
    INDEX 01 01:44:53
  TRACK 70 AUDIO
    TITLE "Disc4Track46_70"
    INDEX 01 01:45:74
  TRACK 71 AUDIO
    TITLE "Disc4Track46_71"
    INDEX 01 01:47:08
  TRACK 72 AUDIO
    TITLE "Disc4Track46_72"
    INDEX 01 01:48:29
  TRACK 73 AUDIO
    TITLE "Disc4Track46_73"
    INDEX 01 01:48:68
  TRACK 74 AUDIO
    TITLE "Disc4Track46_74"
    INDEX 01 01:50:20
  TRACK 75 AUDIO
    TITLE "Disc4Track46_75"
    INDEX 01 01:51:37
  TRACK 76 AUDIO
    TITLE "Disc4Track46_76"
    INDEX 01 01:52:62
  TRACK 77 AUDIO
    TITLE "Disc4Track46_77"
    INDEX 01 01:54:51
